<svg width="21" height="22" viewBox="0 0 21 22" fill="none" xmlns="http://www.w3.org/2000/svg">
<path fill-rule="evenodd" clip-rule="evenodd" d="M10.4997 21.4163C5.58921 21.4163 3.13398 21.4163 1.6085 19.8908C0.0830077 18.3654 0.0830078 15.9101 0.0830078 10.9997C0.0830078 6.08921 0.0830077 3.63398 1.6085 2.1085C3.13398 0.583008 5.58921 0.583008 10.4997 0.583008C15.4101 0.583008 17.8654 0.583008 19.3908 2.1085C20.9163 3.63398 20.9163 6.08921 20.9163 10.9997C20.9163 15.9101 20.9163 18.3654 19.3908 19.8908C17.8654 21.4163 15.4101 21.4163 10.4997 21.4163ZM7.11426 5.27049C7.11426 4.83901 6.76448 4.48924 6.33301 4.48924C5.90154 4.48924 5.55176 4.83901 5.55176 5.27049V6.57258H4.24967C3.81821 6.57258 3.46842 6.92236 3.46842 7.35383C3.46842 7.78531 3.81821 8.13508 4.24967 8.13508H5.55176V9.43717C5.55176 9.86863 5.90154 10.2184 6.33301 10.2184C6.76448 10.2184 7.11426 9.86863 7.11426 9.43717V8.13508H8.41634C8.8478 8.13508 9.19759 7.78531 9.19759 7.35383C9.19759 6.92236 8.8478 6.57258 8.41634 6.57258H7.11426V5.27049ZM12.583 6.57257C12.1516 6.57257 11.8018 6.92234 11.8018 7.35382C11.8018 7.78529 12.1516 8.13507 12.583 8.13507H16.7497C17.1811 8.13507 17.5309 7.78529 17.5309 7.35382C17.5309 6.92234 17.1811 6.57257 16.7497 6.57257H12.583ZM12.583 12.8226C12.1516 12.8226 11.8018 13.1724 11.8018 13.6038C11.8018 14.0353 12.1516 14.3851 12.583 14.3851H16.7497C17.1811 14.3851 17.5309 14.0353 17.5309 13.6038C17.5309 13.1724 17.1811 12.8226 16.7497 12.8226H12.583ZM5.32294 13.0514C5.01784 12.7463 4.52317 12.7463 4.21808 13.0514C3.91299 13.3566 3.91299 13.8511 4.21808 14.1562L5.22816 15.1663L4.21809 16.1764C3.913 16.4816 3.913 16.9761 4.21809 17.2812C4.5232 17.5863 5.01785 17.5863 5.32295 17.2812L6.33302 16.2712L7.34307 17.2812C7.64816 17.5863 8.14282 17.5863 8.4479 17.2812C8.75301 16.9761 8.75301 16.4816 8.4479 16.1764L7.43787 15.1663L8.4479 14.1562C8.75301 13.8511 8.75301 13.3566 8.4479 13.0514C8.14284 12.7463 7.64818 12.7463 7.34308 13.0514L6.33302 14.0614L5.32294 13.0514ZM12.583 15.9476C12.1516 15.9476 11.8018 16.2974 11.8018 16.7288C11.8018 17.1603 12.1516 17.5101 12.583 17.5101H16.7497C17.1811 17.5101 17.5309 17.1603 17.5309 16.7288C17.5309 16.2974 17.1811 15.9476 16.7497 15.9476H12.583Z" fill="white"/>
</svg>
