<svg width="25" height="26" viewBox="0 0 25 26" fill="none" xmlns="http://www.w3.org/2000/svg">
<path fill-rule="evenodd" clip-rule="evenodd" d="M12.4997 23.4163C7.58921 23.4163 5.13398 23.4163 3.6085 21.8908C2.08301 20.3654 2.08301 17.9101 2.08301 12.9997C2.08301 8.08921 2.08301 5.63398 3.6085 4.1085C5.13398 2.58301 7.58921 2.58301 12.4997 2.58301C17.4101 2.58301 19.8654 2.58301 21.3908 4.1085C22.9163 5.63398 22.9163 8.08921 22.9163 12.9997C22.9163 17.9101 22.9163 20.3654 21.3908 21.8908C19.8654 23.4163 17.4101 23.4163 12.4997 23.4163ZM9.11426 7.27049C9.11426 6.83901 8.76448 6.48924 8.33301 6.48924C7.90154 6.48924 7.55176 6.83901 7.55176 7.27049V8.57258H6.24967C5.81821 8.57258 5.46842 8.92236 5.46842 9.35383C5.46842 9.78531 5.81821 10.1351 6.24967 10.1351H7.55176V11.4372C7.55176 11.8686 7.90154 12.2184 8.33301 12.2184C8.76448 12.2184 9.11426 11.8686 9.11426 11.4372V10.1351H10.4163C10.8478 10.1351 11.1976 9.78531 11.1976 9.35383C11.1976 8.92236 10.8478 8.57258 10.4163 8.57258H9.11426V7.27049ZM14.583 8.57257C14.1516 8.57257 13.8018 8.92234 13.8018 9.35382C13.8018 9.78529 14.1516 10.1351 14.583 10.1351H18.7497C19.1811 10.1351 19.5309 9.78529 19.5309 9.35382C19.5309 8.92234 19.1811 8.57257 18.7497 8.57257H14.583ZM14.583 14.8226C14.1516 14.8226 13.8018 15.1724 13.8018 15.6038C13.8018 16.0353 14.1516 16.3851 14.583 16.3851H18.7497C19.1811 16.3851 19.5309 16.0353 19.5309 15.6038C19.5309 15.1724 19.1811 14.8226 18.7497 14.8226H14.583ZM7.32294 15.0514C7.01784 14.7463 6.52317 14.7463 6.21808 15.0514C5.91299 15.3566 5.91299 15.8511 6.21808 16.1562L7.22816 17.1663L6.21809 18.1764C5.913 18.4816 5.913 18.9761 6.21809 19.2812C6.5232 19.5863 7.01785 19.5863 7.32295 19.2812L8.33302 18.2712L9.34307 19.2812C9.64816 19.5863 10.1428 19.5863 10.4479 19.2812C10.753 18.9761 10.753 18.4816 10.4479 18.1764L9.43787 17.1663L10.4479 16.1562C10.753 15.8511 10.753 15.3566 10.4479 15.0514C10.1428 14.7463 9.64818 14.7463 9.34308 15.0514L8.33302 16.0614L7.32294 15.0514ZM14.583 17.9476C14.1516 17.9476 13.8018 18.2974 13.8018 18.7288C13.8018 19.1603 14.1516 19.5101 14.583 19.5101H18.7497C19.1811 19.5101 19.5309 19.1603 19.5309 18.7288C19.5309 18.2974 19.1811 17.9476 18.7497 17.9476H14.583Z" fill="#789DBC"/>
</svg>
